<?xml version="1.0" encoding="UTF-8" standalone="no"?>
<svg
   xmlns:dc="http://purl.org/dc/elements/1.1/"
   xmlns:cc="http://creativecommons.org/ns#"
   xmlns:rdf="http://www.w3.org/1999/02/22-rdf-syntax-ns#"
   xmlns:svg="http://www.w3.org/2000/svg"
   xmlns="http://www.w3.org/2000/svg"
   xmlns:sodipodi="http://sodipodi.sourceforge.net/DTD/sodipodi-0.dtd"
   xmlns:inkscape="http://www.inkscape.org/namespaces/inkscape"
   width="24"
   height="24"
   preserveAspectRatio="xMidYMid meet"
   viewBox="0 0 24 24"
   style="-ms-transform: rotate(360deg); -webkit-transform: rotate(360deg); transform: rotate(360deg);"
   version="1.1"
   id="svg885"
   sodipodi:docname="tool-erase.svg"
   inkscape:version="1.0.1 (3bc2e813f5, 2020-09-07)">
  <metadata
     id="metadata891">
    <rdf:RDF>
      <cc:Work
         rdf:about="">
        <dc:format>image/svg+xml</dc:format>
        <dc:type
           rdf:resource="http://purl.org/dc/dcmitype/StillImage" />
      </cc:Work>
    </rdf:RDF>
  </metadata>
  <defs
     id="defs889" />
  <sodipodi:namedview
     pagecolor="#ffffff"
     bordercolor="#666666"
     borderopacity="1"
     objecttolerance="10"
     gridtolerance="10"
     guidetolerance="10"
     inkscape:pageopacity="0"
     inkscape:pageshadow="2"
     inkscape:window-width="1920"
     inkscape:window-height="1017"
     id="namedview887"
     showgrid="true"
     inkscape:zoom="17.229167"
     inkscape:cx="12.151106"
     inkscape:cy="11.607111"
     inkscape:window-x="-8"
     inkscape:window-y="-8"
     inkscape:window-maximized="1"
     inkscape:current-layer="svg885">
    <inkscape:grid
       type="xygrid"
       id="grid907" />
  </sodipodi:namedview>
  <path
     d="m 21.36,9.88 c 0.002,-0.7939488 -0.310896,-1.5562971 -0.87,-2.12 L 16.24,3.51 C 15.051586,2.3823712 13.188414,2.3823712 12,3.51 L 3.51,12 c -1.1698135,1.17127 -1.1698135,3.06873 0,4.24 l 4.25,4.25 c 1.1712702,1.169814 3.06873,1.169814 4.24,0 L 20.49,12 c 0.559104,-0.563703 0.871955,-1.326051 0.87,-2.12 z m -2.29,0.71 -8.48,8.48 c -0.391177,0.394398 -1.0288231,0.394398 -1.42,0 L 4.93,14.83 c -0.3943978,-0.391177 -0.3943978,-1.028823 0,-1.42 l 8.48,-8.48 c 0.391177,-0.3943978 1.028823,-0.3943978 1.42,0 l 4.24,4.24 c 0.394398,0.3911769 0.394398,1.028823 0,1.42 z"
     fill="#626262"
     id="path881"
     sodipodi:nodetypes="ccccccccccccccccccc"
     style="fill:#626262;fill-opacity:1;stroke-width:1.0015748;stroke-miterlimit:4;stroke-dasharray:none" />
  <path
     style="fill:none;stroke:#626262;stroke-width:2;stroke-linecap:butt;stroke-linejoin:miter;stroke-opacity:1;stroke-miterlimit:4;stroke-dasharray:none"
     d="m 7,11 6.355502,6.355502"
     id="path905" />
  <rect
     x="0"
     y="0"
     width="24"
     height="24"
     fill="rgba(0, 0, 0, 0)"
     id="rect883" />
</svg>
